<?xml version="1.0" standalone="no"?><!DOCTYPE svg PUBLIC "-//W3C//DTD SVG 1.1//EN" "http://www.w3.org/Graphics/SVG/1.1/DTD/svg11.dtd"><svg t="1502267941892" class="icon" style="" viewBox="0 0 1024 1024" version="1.1" xmlns="http://www.w3.org/2000/svg" p-id="1082" xmlns:xlink="http://www.w3.org/1999/xlink" width="200" height="200"><defs><style type="text/css"></style></defs><path d="M894.092 418.223c-13.106 0-25.283 6.352-35.4 17.233-47.43-89.828-142.26-157.912-257.681-181.646l-21.426-46.289s2.289-0.95 8.717-43.885c-31.638 14.413-41.412 26.51-41.412 26.51s2.07-20.998 22.135-60.17c-89.733 33.049-105.184 93.143-105.184 93.143s-1.15 0.474 3.66-43.135c-40.018 26.568-57.736 57.972-65.41 77.892-106.578 26.63-193.675 91.518-238.912 175.815-9.767-9.797-21.317-15.467-33.694-15.467-35.092 0-63.54 45.525-63.54 101.681 0 56.161 28.448 101.685 63.54 101.685 1.865 0 3.709-0.136 5.534-0.388C165.983 772.495 322.294 887.58 510.47 887.58c188.352 0 344.781-115.302 375.536-266.806 2.648 0.538 5.346 0.816 8.085 0.816 35.091 0 63.54-45.524 63.54-101.685 0-56.156-28.449-101.68-63.54-101.68zM131.639 527.321c-4.054 26.263-3.07 50.764 1.765 69.373-23.693-0.5-42.804-28.393-42.804-62.775 0-34.7 19.451-62.823 43.443-62.823 4.665 0 9.145 1.09 13.359 3.055-7.052 14.772-12.66 33.042-15.763 53.17z m383.797 318.055c-165.338 0-299.362-77.13-299.362-172.272 0-17.982 4.795-35.32 13.676-51.615-13.136-21.764-20.629-46.817-20.629-73.487 0-83.62 73.572-151.414 164.325-151.414 52.355 0 98.987 22.562 129.08 57.706 30.092-35.144 76.726-57.706 129.082-57.706 90.753 0 164.324 67.793 164.324 151.414 0 18.088-3.447 35.433-9.761 51.514 18.35 22.316 28.629 47.26 28.629 73.588-0.001 95.142-134.032 172.272-299.364 172.272z m374.733-248.681c4.84-18.61 5.822-43.11 1.774-69.373-3.107-20.128-8.718-38.398-15.766-53.169 4.208-1.965 8.694-3.055 13.357-3.055 23.994 0 43.444 28.124 43.444 62.823 0 34.381-19.11 62.273-42.809 62.774z" fill="#1296db" p-id="1083"></path><path d="M507.925 566.127c0-61.68-49.995-111.679-111.674-111.679-61.678 0-111.681 49.998-111.681 111.679 0 61.679 50.003 111.677 111.681 111.677 61.679 0 111.674-49.998 111.674-111.677z m-165.618-22.802c-14.153 0-25.624-11.476-25.624-25.628 0-14.15 11.47-25.627 25.624-25.627 14.152 0 25.627 11.476 25.627 25.627 0 14.153-11.476 25.628-25.627 25.628z m324.546 215.02c0-6.083-4.931-11.013-11.015-11.013-4.587 0-8.514 2.806-10.172 6.796-38.15 17.904-81.51 28.55-127.681 29.791v-61.953c15.136-3.583 26.414-17.149 26.414-33.38 0-18.965-15.379-34.34-34.342-34.34-18.965 0-34.338 15.374-34.338 34.34 0 16.527 11.684 30.321 27.243 33.593v61.84c-42.55-0.776-82.794-9.508-118.82-24.58-1.949-3.09-5.372-5.155-9.298-5.155-6.08 0-11.016 4.931-11.016 11.015 0 4.858 3.171 8.935 7.544 10.4l-1.183 1.821c41.802 17.973 88.935 28.145 138.852 28.145 56.73 0 109.855-13.118 155.63-35.929l-2.01-2.803c2.535-2.017 4.192-5.096 4.192-8.587z m-37.418-303.897c-61.678 0-111.682 49.998-111.682 111.679 0 61.679 50.003 111.677 111.682 111.677 61.675 0 111.673-49.997 111.673-111.677 0-61.681-50-111.679-111.673-111.679z m-46.6 88.877c-14.158 0-25.628-11.476-25.628-25.628 0-14.15 11.47-25.627 25.629-25.627 14.15 0 25.626 11.476 25.626 25.627 0 14.153-11.476 25.628-25.626 25.628z" fill="#1296db" p-id="1084"></path></svg>